HIERARCHY
ROOT hip
{
  OFFSET 0 0 0
  CHANNELS 6 Xposition Yposition Zposition Zrotation Yrotation Xrotation
  JOINT abdomen
  {
    OFFSET 0 20.6881 -0.73152
    CHANNELS 3 Zrotation Xrotation Yrotation
    JOINT chest
    {
      OFFSET 0 11.7043 -0.48768
      CHANNELS 3 Zrotation Xrotation Yrotation
      JOINT neck
      {
        OFFSET 0 22.1894 -2.19456
        CHANNELS 3 Zrotation Xrotation Yrotation
        JOINT head
        {
          OFFSET -0.24384 7.07133 1.2192
          CHANNELS 3 Zrotation Xrotation Yrotation
          JOINT leftEye
          {
            OFFSET 4.14528 8.04674 8.04672
            CHANNELS 3 Zrotation Xrotation Yrotation
            End Site
            {
              OFFSET 1 0 0
            }
          }
          JOINT rightEye
          {
            OFFSET -3.6576 8.04674 8.04672
            CHANNELS 3 Zrotation Xrotation Yrotation
            End Site
            {
              OFFSET 1 0 0
            }
          }
        }
      }
      JOINT rCollar
      {
        OFFSET -2.68224 19.2634 -4.8768
        CHANNELS 3 Zrotation Xrotation Yrotation
        JOINT rShldr
        {
          OFFSET -8.77824 -1.95073 1.46304
          CHANNELS 3 Zrotation Xrotation Yrotation
          JOINT rForeArm
          {
            OFFSET -28.1742 -1.7115 0.48768
            CHANNELS 3 Zrotation Xrotation Yrotation
            JOINT rHand
            {
              OFFSET -22.5879 0.773209 7.07136
              CHANNELS 3 Zrotation Xrotation Yrotation
              JOINT rThumb1
              {
                OFFSET -1.2192 -0.487915 3.41376
                CHANNELS 3 Zrotation Xrotation Yrotation
                JOINT rThumb2
                {
                  OFFSET -3.37035 -0.52449 3.41376
                  CHANNELS 3 Zrotation Xrotation Yrotation
                  End Site
                  {
                    OFFSET -1.78271 -1.18214 1.43049
                  }
                }
              }
              JOINT rIndex1
              {
                OFFSET -7.75947 0.938293 5.60832
                CHANNELS 3 Zrotation Xrotation Yrotation
                JOINT rIndex2
                {
                  OFFSET -2.54057 -0.884171 1.56538
                  CHANNELS 3 Zrotation Xrotation Yrotation
                  End Site
                  {
                    OFFSET -1.62519 -0.234802 1.16502
                  }
                }
              }
              JOINT rMid1
              {
                OFFSET -8.24714 1.18213 3.41376
                CHANNELS 3 Zrotation Xrotation Yrotation
                JOINT rMid2
                {
                  OFFSET -3.10165 -0.590103 1.0647
                  CHANNELS 3 Zrotation Xrotation Yrotation
                  End Site
                  {
                    OFFSET -2.48547 -0.328903 0.83742
                  }
                }
              }
              JOINT rRing1
              {
                OFFSET -8.82822 0.546677 1.51678
                CHANNELS 3 Zrotation Xrotation Yrotation
                JOINT rRing2
                {
                  OFFSET -2.60934 -0.819778 -0.0198488
                  CHANNELS 3 Zrotation Xrotation Yrotation
                  End Site
                  {
                    OFFSET -2.33842 -0.294052 0.168128
                  }
                }
              }
              JOINT rPinky1
              {
                OFFSET -8.27202 -0.0477905 -0.4584
                CHANNELS 3 Zrotation Xrotation Yrotation
                JOINT rPinky2
                {
                  OFFSET -1.82734 -0.647385 -0.700984
                  CHANNELS 3 Zrotation Xrotation Yrotation
                  End Site
                  {
                    OFFSET -1.69225 -0.51767 -0.607171
                  }
                }
              }
            }
          }
        }
      }
      JOINT lCollar
      {
        OFFSET 2.68224 19.2634 -4.8768
        CHANNELS 3 Zrotation Xrotation Yrotation
        JOINT lShldr
        {
          OFFSET 8.77824 -1.95073 1.46304
          CHANNELS 3 Zrotation Xrotation Yrotation
          JOINT lForeArm
          {
            OFFSET 28.1742 -1.7115 0.48768
            CHANNELS 3 Zrotation Xrotation Yrotation
            JOINT lHand
            {
              OFFSET 22.5879 0.773209 7.07136
              CHANNELS 3 Zrotation Xrotation Yrotation
              JOINT lThumb1
              {
                OFFSET 1.2192 -0.487915 3.41376
                CHANNELS 3 Zrotation Xrotation Yrotation
                JOINT lThumb2
                {
                  OFFSET 3.37035 -0.52449 3.41376
                  CHANNELS 3 Zrotation Xrotation Yrotation
                  End Site
                  {
                    OFFSET 1.78271 -1.18214 1.43049
                  }
                }
              }
              JOINT lIndex1
              {
                OFFSET 7.75947 0.938293 5.60832
                CHANNELS 3 Zrotation Xrotation Yrotation
                JOINT lIndex2
                {
                  OFFSET 2.54057 -0.884171 1.56538
                  CHANNELS 3 Zrotation Xrotation Yrotation
                  End Site
                  {
                    OFFSET 1.62519 -0.234802 1.16502
                  }
                }
              }
              JOINT lMid1
              {
                OFFSET 8.24714 1.18213 3.41376
                CHANNELS 3 Zrotation Xrotation Yrotation
                JOINT lMid2
                {
                  OFFSET 3.10165 -0.590103 1.0647
                  CHANNELS 3 Zrotation Xrotation Yrotation
                  End Site
                  {
                    OFFSET 2.48547 -0.328903 0.83742
                  }
                }
              }
              JOINT lRing1
              {
                OFFSET 8.82822 0.546677 1.51678
                CHANNELS 3 Zrotation Xrotation Yrotation
                JOINT lRing2
                {
                  OFFSET 2.60934 -0.819778 -0.0198488
                  CHANNELS 3 Zrotation Xrotation Yrotation
                  End Site
                  {
                    OFFSET 2.33842 -0.294052 0.168128
                  }
                }
              }
              JOINT lPinky1
              {
                OFFSET 8.27202 -0.0477905 -0.4584
                CHANNELS 3 Zrotation Xrotation Yrotation
                JOINT lPinky2
                {
                  OFFSET 1.82734 -0.647385 -0.700984
                  CHANNELS 3 Zrotation Xrotation Yrotation
                  End Site
                  {
                    OFFSET 1.69225 -0.51767 -0.607171
                  }
                }
              }
            }
          }
        }
      }
    }
  }
  JOINT rButtock
  {
    OFFSET -8.77824 4.35084 1.2192
    CHANNELS 3 Zrotation Xrotation Yrotation
    JOINT rThigh
    {
      OFFSET 0 -1.70687 -2.19456
      CHANNELS 3 Zrotation Xrotation Yrotation
      JOINT rShin
      {
        OFFSET 0 -36.8199 0.73152
        CHANNELS 3 Zrotation Xrotation Yrotation
        JOINT rFoot
        {
          OFFSET 0.73152 -45.1104 -5.12064
          CHANNELS 3 Zrotation Xrotation Yrotation
          End Site
          {
            OFFSET -1.1221 -3.69964 12.103
          }
        }
      }
    }
  }
  JOINT lButtock
  {
    OFFSET 8.77824 4.35084 1.2192
    CHANNELS 3 Zrotation Xrotation Yrotation
    JOINT lThigh
    {
      OFFSET 0 -1.70687 -2.19456
      CHANNELS 3 Zrotation Xrotation Yrotation
      JOINT lShin
      {
        OFFSET 0 -36.8199 0.73152
        CHANNELS 3 Zrotation Xrotation Yrotation
        JOINT lFoot
        {
          OFFSET -0.73152 -45.1104 -5.12064
          CHANNELS 3 Zrotation Xrotation Yrotation
          End Site
          {
            OFFSET 1.1221 -3.69964 12.103
          }
        }
      }
    }
  }
}
MOTION
Frames:	6
Frame Time:	0.00833333
148.9262 80.7082 -49.938693 183.473 194.008 183.411 -6.62871 0.368288 -6.10913 -0.25675 -0.279574 -1.74104 -2.39052 7.545190000000001 -4.5091 1.23263 22.6332 -9.53205 -0.0 0.0 0.0 -0.0 0.0 0.0 9.91771e-14 -2.89897e-16 -2.47182e-13 3.6246700000000005 -23.4731 -0.435998 -27.1218 -26.685 61.793200000000006 0.0178587 1.2725100000000003 0.17891200000000002 -2.61672e-09 9.67239e-10 9.56489e-10 -4.50979e-09 1.6605e-09 1.6572400000000002e-09 -2.61671e-09 9.67231e-10 9.56481e-10 7.730910000000001 5.47488 0.417314 -2.61673e-09 9.67245e-10 9.56499e-10 2.9055400000000002 0.965183 0.102902 -2.61672e-09 9.67233e-10 9.56492e-10 10.2786 0.731801 0.0259123 -2.61673e-09 9.67239e-10 9.56495e-10 2.22167 -0.733487 -0.20892 9.9213e-14 -2.94046e-16 -2.47372e-13 -84.29120000000002 58.3088 7.10997 27.683600000000002 -28.9759 -65.6172 0.435564 -18.436 2.68518 -4.78835e-11 5.60614e-09 2.56208e-09 -1.17002e-10 9.67705e-09 4.42813e-09 -4.78866e-11 5.60614e-09 2.5620900000000006e-09 -7.730910000000001 5.47488 -0.417314 -4.78827e-11 5.60614e-09 2.56208e-09 -2.9055400000000002 0.965183 -0.102902 -4.78891e-11 5.60614e-09 2.56208e-09 -10.2786 0.731801 -0.0259123 -4.7877700000000004e-11 5.60614e-09 2.56208e-09 -2.22167 -0.733487 0.20892 -2.03217e-16 0.0 -3.88251e-19 -5.44804 -52.5246 -1.83364 -1.40922 64.3049 1.79731 -1.52663 2.81438 -14.3622 2.03217e-16 0.0 3.88251e-19 -2.07162 -14.1305 1.4685900000000003 0.086477 29.5631 -0.8844500000000001 8.12792 -19.7968 18.635900000000003
148.7654 80.5092 -49.732993 183.422 194.606 183.22 -7.05703 0.5578700000000001 -6.44112 -0.25616000000000005 -0.433461 -1.8394600000000003 -2.49828 7.37743 -4.26818 0.8775120000000001 22.382 -8.98213 -0.0 0.0 0.0 -0.0 0.0 0.0 7.48071e-14 -5.81363e-15 7.80447e-14 3.5557 -23.8603 -0.822257 -27.6176 -28.5726 64.6777 0.0192793 -2.32692 -0.327687 -1.09146e-09 -1.29515e-09 -1.6923e-09 -1.86756e-09 -2.24679e-09 -2.91293e-09 -1.09144e-09 -1.29516e-09 -1.6923099999999997e-09 7.730910000000001 5.47488 0.417314 -1.09146e-09 -1.29515e-09 -1.69229e-09 2.9055400000000002 0.965183 0.102902 -1.09145e-09 -1.29516e-09 -1.6923e-09 10.2786 0.731801 0.0259123 -1.09146e-09 -1.29515e-09 -1.69229e-09 2.22167 -0.733487 -0.20892 7.4805e-14 -5.81588e-15 7.78677e-14 -83.741 58.9073 6.38276 27.7092 -29.0934 -65.802 0.45690100000000006 -18.8615 2.75189 1.2876e-10 2.58216e-09 1.15519e-09 2.04751e-10 4.45656e-09 1.99819e-09 1.28757e-10 2.5821700000000004e-09 1.1552e-09 -7.730910000000001 5.47488 -0.417314 1.28761e-10 2.58216e-09 1.15519e-09 -2.9055400000000002 0.965183 -0.102902 1.2875400000000003e-10 2.58216e-09 1.15519e-09 -10.2786 0.731801 -0.0259123 1.28765e-10 2.58216e-09 1.15518e-09 -2.22167 -0.733487 0.20892 -2.03217e-16 0.0 -3.88251e-19 -5.62403 -53.3305 -3.01728 -1.59244 66.1553 1.96692 -1.46291 3.2802 -14.4053 2.03217e-16 0.0 3.88251e-19 -2.15011 -14.1258 1.8204700000000003 0.0902017 30.067 -0.9060740000000002 8.31932 -19.9791 18.8946
148.7176 80.3366 -49.581893 183.543 195.09 183.173 -7.459700000000001 0.658601 -6.72076 -0.331322 -0.588317 -1.92254 -2.59397 7.221190000000001 -4.07248 0.595915 22.1032 -8.5358 -0.0 0.0 0.0 -0.0 0.0 0.0 5.10458e-14 -1.3797099999999999e-14 4.0804400000000003e-13 3.5059700000000005 -24.3003 -0.815748 -27.9705 -30.360999999999997 67.6044 -0.030401500000000005 -6.07723 -0.8581610000000001 4.264699999999999e-10 -3.57778e-09 -4.31108e-09 7.61998e-10 -6.18936e-09 -7.432060000000001e-09 4.26484e-10 -3.57778e-09 -4.3111e-09 7.730910000000001 5.47488 0.417314 4.26469e-10 -3.57777e-09 -4.31108e-09 2.9055400000000002 0.965183 0.102902 4.2647499999999997e-10 -3.57778e-09 -4.31108e-09 10.2786 0.731801 0.0259123 4.2646300000000007e-10 -3.57778e-09 -4.31107e-09 2.22167 -0.733487 -0.20892 5.1007500000000004e-14 -1.3797800000000002e-14 4.0788099999999995e-13 -83.07 59.61760000000001 5.60463 27.7397 -29.2363 -66.0294 0.4831750000000001 -19.3661 2.83149 3.11681e-10 -5.72409e-10 -2.97129e-10 5.38004e-10 -9.89769e-10 -5.10378e-10 3.11678e-10 -5.72406e-10 -2.97127e-10 -7.730910000000001 5.47488 -0.417314 3.11682e-10 -5.72417e-10 -2.9714e-10 -2.9055400000000002 0.965183 -0.102902 3.11675e-10 -5.72407e-10 -2.97132e-10 -10.2786 0.731801 -0.0259123 3.11685e-10 -5.72408e-10 -2.9714e-10 -2.22167 -0.733487 0.20892 -2.03217e-16 0.0 -3.88251e-19 -6.02697 -54.0458 -4.30348 -1.80394 67.978 2.1634 -1.38317 3.81166 -14.4722 2.03217e-16 0.0 3.88251e-19 -2.23131 -14.0836 2.18986 0.0926387 30.450800000000005 -0.9233040000000001 8.48382 -20.1508 19.1094
148.6373 80.2398 -49.353993 183.752 195.639 182.946 -7.793870000000001 0.632613 -6.94548 -0.44578 -0.7381820000000001 -1.9894 -2.69248 7.12359 -3.96455 0.394734 21.7463 -8.27447 -0.0 0.0 0.0 -0.0 0.0 0.0 3.30281e-14 -2.94205e-14 6.42621e-13 3.39872 -24.8064 -0.295719 -28.1942 -31.933400000000002 70.3465 -0.112772 -9.53293 -1.35239 1.24516e-09 -5.09815e-09 -5.86463e-09 2.18124e-09 -8.81659e-09 -1.01147e-08 1.24518e-09 -5.09816e-09 -5.864650000000001e-09 7.730910000000001 5.47488 0.417314 1.24517e-09 -5.09815e-09 -5.86464e-09 2.9055400000000002 0.965183 0.102902 1.24517e-09 -5.09815e-09 -5.86463e-09 10.2786 0.731801 0.0259123 1.24516e-09 -5.09815e-09 -5.86462e-09 2.22167 -0.733487 -0.20892 3.297060000000001e-14 -2.94211e-14 6.42472e-13 -82.2908 60.39240000000001 4.68372 27.7623 -29.345100000000002 -66.2047 0.510141 -19.8715 2.91164 4.49715e-10 -2.59181e-09 -1.20031e-09 7.87021e-10 -4.47622e-09 -2.07022e-09 4.4971199999999996e-10 -2.5918e-09 -1.20031e-09 -7.730910000000001 5.47488 -0.417314 4.49715e-10 -2.59182e-09 -1.20033e-09 -2.9055400000000002 0.965183 -0.102902 4.49708e-10 -2.5918e-09 -1.20032e-09 -10.2786 0.731801 -0.0259123 4.49717e-10 -2.59181e-09 -1.20033e-09 -2.22167 -0.733487 0.20892 -2.03217e-16 0.0 -3.88251e-19 -6.75984 -54.5723 -5.89525 -2.03696 69.6778 2.38056 -1.3193 4.32264 -14.7728 2.03217e-16 0.0 3.88251e-19 -2.40358 -13.9585 2.31265 0.0921555 30.6012 -0.9329660000000001 8.65758 -20.2179 19.4295
148.5657 80.1665 -49.152593 184.0 196.12100000000004 182.942 -8.06176 0.449731 -7.15386 -0.592912 -0.897594 -2.05071 -2.80017 7.11727 -3.9572599999999998 0.257861 21.2879 -8.22201 -0.0 0.0 0.0 -0.0 0.0 0.0 2.65264e-14 -5.98454e-14 7.56281e-13 3.24763 -25.3913 0.8262540000000002 -28.365500000000004 -33.4715 72.8654 -0.202858 -12.635 -1.8035900000000002 9.86907e-10 -5.60056e-09 -5.88005e-09 1.7367900000000002e-09 -9.68813e-09 -1.01461e-08 9.8692e-10 -5.60056e-09 -5.88006e-09 7.730910000000001 5.47488 0.417314 9.86908e-10 -5.60055e-09 -5.88005e-09 2.9055400000000002 0.965183 0.102902 9.86912e-10 -5.60055e-09 -5.88005e-09 10.2786 0.731801 0.0259123 9.86899e-10 -5.60055e-09 -5.88003e-09 2.22167 -0.733487 -0.20892 2.64775e-14 -5.98488e-14 7.561480000000001e-13 -81.4145 61.198 3.6012400000000007 27.7742 -29.403099999999995 -66.2983 0.539169 -20.4079 2.99711 5.47902e-10 -2.93784e-09 -1.26697e-09 9.56677e-10 -5.07344e-09 -2.18457e-09 5.47898e-10 -2.93783e-09 -1.2669600000000001e-09 -7.730910000000001 5.47488 -0.417314 5.47902e-10 -2.93784e-09 -1.26698e-09 -2.9055400000000002 0.965183 -0.102902 5.47895e-10 -2.93783e-09 -1.26698e-09 -10.2786 0.731801 -0.0259123 5.47903e-10 -2.93783e-09 -1.26699e-09 -2.22167 -0.733487 0.20892 -2.03217e-16 0.0 -3.88251e-19 -7.91224 -54.9283 -7.85506 -2.30351 71.3148 2.63151 -1.28876 4.7646 -15.464300000000001 2.03217e-16 0.0 3.88251e-19 -2.75197 -13.7424 2.04759 0.0876549 30.450900000000004 -0.933903 8.86039 -20.1588 19.92
148.4344 80.1145 -48.938493 184.123 196.676 183.075 -8.28419 0.137158 -7.334289999999999 -0.791004 -1.06436 -2.10333 -2.90892 7.170519999999999 -4.02731 0.181996 20.76 -8.33261 -0.0 0.0 0.0 -0.0 0.0 0.0 2.7334499999999996e-14 -1.00382e-13 8.02053e-13 3.11581 -26.0299 2.48144 -28.4694 -35.0551 75.3134 -0.307223 -15.600299999999999 -2.24655 8.51101e-11 -5.518e-09 -4.97505e-09 1.78715e-10 -9.55103e-09 -8.59141e-09 8.51212e-11 -5.51799e-09 -4.97506e-09 7.730910000000001 5.47488 0.417314 8.51092e-11 -5.51799e-09 -4.97506e-09 2.9055400000000002 0.965183 0.102902 8.51138e-11 -5.51798e-09 -4.97505e-09 10.2786 0.731801 0.0259123 8.5102e-11 -5.51798e-09 -4.97504e-09 2.22167 -0.733487 -0.20892 2.73114e-14 -1.00391e-13 8.01938e-13 -80.4012 62.0624 2.37721 27.7823 -29.4428 -66.3619 0.57251 -21.0001 3.09224 6.27302e-10 -2.35246e-09 -8.57161e-10 1.0879e-09 -4.06264e-09 -1.4756200000000001e-09 6.272980000000001e-10 -2.35245e-09 -8.571389999999999e-10 -7.730910000000001 5.47488 -0.417314 6.27303e-10 -2.35246e-09 -8.57167e-10 -2.9055400000000002 0.965183 -0.102902 6.272950000000001e-10 -2.35245e-09 -8.57161e-10 -10.2786 0.731801 -0.0259123 6.27301e-10 -2.35245e-09 -8.5717e-10 -2.22167 -0.733487 0.20892 -2.03217e-16 0.0 -3.88251e-19 -9.38995 -55.13290000000001 -10.0552 -2.61445 72.9113 2.9265 -1.26253 5.18842 -16.4018 2.03217e-16 0.0 3.88251e-19 -3.20479 -13.4576 1.56014 0.0800884 30.0726 -0.927842 9.06663 -20.0221 20.4917
